<svg width="15" height="15" viewBox="0 0 15 15" fill="none" xmlns="http://www.w3.org/2000/svg">
<path fill-rule="evenodd" clip-rule="evenodd" d="M3.06222 6.75H4.52147C4.58838 5.59021 4.80921 4.5218 5.14983 3.66171C4.06314 4.32851 3.28135 5.44386 3.06222 6.75ZM7.5 1.5C4.18629 1.5 1.5 4.18629 1.5 7.5C1.5 10.8137 4.18629 13.5 7.5 13.5C10.8137 13.5 13.5 10.8137 13.5 7.5C13.5 4.18629 10.8137 1.5 7.5 1.5ZM7.5 3C7.44296 3 7.3259 3.02379 7.15102 3.19638C6.97293 3.37215 6.77813 3.66368 6.59837 4.08313C6.30685 4.76333 6.09368 5.68919 6.02428 6.75H8.97572C8.90632 5.68919 8.69315 4.76333 8.40163 4.08313C8.22187 3.66368 8.02707 3.37215 7.84897 3.19638C7.6741 3.02379 7.55704 3 7.5 3ZM10.4785 6.75C10.4116 5.59021 10.1908 4.5218 9.85017 3.66171C10.9369 4.32851 11.7187 5.44386 11.9378 6.75H10.4785ZM8.97572 8.25H6.02428C6.09368 9.31081 6.30685 10.2367 6.59837 10.9169C6.77813 11.3363 6.97293 11.6278 7.15102 11.8036C7.3259 11.9762 7.44296 12 7.5 12C7.55704 12 7.6741 11.9762 7.84897 11.8036C8.02707 11.6278 8.22187 11.3363 8.40163 10.9169C8.69315 10.2367 8.90632 9.31081 8.97572 8.25ZM9.85017 11.3383C10.1908 10.4782 10.4116 9.40979 10.4785 8.25H11.9378C11.7187 9.55614 10.9369 10.6715 9.85017 11.3383ZM5.14983 11.3383C4.80921 10.4782 4.58838 9.40979 4.52147 8.25H3.06222C3.28135 9.55614 4.06314 10.6715 5.14983 11.3383Z" fill="#717171"/>
</svg>
