<svg width="15" height="15" viewBox="0 0 15 15" fill="none" xmlns="http://www.w3.org/2000/svg">
<path fill-rule="evenodd" clip-rule="evenodd" d="M7.5 13.5C10.8137 13.5 13.5 10.8137 13.5 7.5C13.5 4.18629 10.8137 1.5 7.5 1.5C4.18629 1.5 1.5 4.18629 1.5 7.5C1.5 10.8137 4.18629 13.5 7.5 13.5ZM5.25 6.75C5.66421 6.75 6 6.41421 6 6C6 5.58579 5.66421 5.25 5.25 5.25C4.83579 5.25 4.5 5.58579 4.5 6C4.5 6.41421 4.83579 6.75 5.25 6.75ZM10.5 6C10.5 6.41421 10.1642 6.75 9.75 6.75C9.33579 6.75 9 6.41421 9 6C9 5.58579 9.33579 5.25 9.75 5.25C10.1642 5.25 10.5 5.58579 10.5 6ZM10.1517 10.1516C10.4445 9.85869 10.4445 9.38381 10.1517 9.09092C9.85876 8.79803 9.38388 8.79803 9.09099 9.09092C8.21231 9.9696 6.78769 9.9696 5.90901 9.09092C5.61612 8.79803 5.14124 8.79803 4.84835 9.09092C4.55546 9.38381 4.55546 9.85869 4.84835 10.1516C6.31282 11.616 8.68718 11.616 10.1517 10.1516Z" fill="#717171"/>
</svg>
