<svg width="30" height="24" viewBox="0 0 30 24" fill="none" xmlns="http://www.w3.org/2000/svg">
<path d="M26.842 24C27.5045 24 28.0785 23.7812 28.5666 23.3493L20.2162 14.9986C20.0159 15.1421 19.8217 15.2816 19.6382 15.4143C19.0133 15.8747 18.5062 16.2339 18.1167 16.4914C17.7273 16.7494 17.2092 17.0124 16.5625 17.2809C15.9153 17.5498 15.3124 17.6838 14.7531 17.6838H14.7367H14.7204C14.161 17.6838 13.5581 17.5498 12.911 17.2809C12.2639 17.0124 11.7458 16.7494 11.3568 16.4914C10.9674 16.2339 10.4605 15.8747 9.83524 15.4143C9.66101 15.2865 9.46778 15.1464 9.25887 14.9964L0.906921 23.3493C1.39489 23.7812 1.96933 24 2.6318 24H26.842Z" fill="black"/>
<path d="M1.66136 9.74023C1.03651 9.32364 0.482402 8.84654 0 8.30913V21.014L7.35996 13.654C5.88755 12.6261 3.99043 11.323 1.66136 9.74023Z" fill="black"/>
<path d="M27.8287 9.74023C25.5885 11.2565 23.6844 12.5619 22.1164 13.657L29.4734 21.0143V8.30913C29.0017 8.83573 28.4536 9.31251 27.8287 9.74023Z" fill="black"/>
<path d="M26.8422 0.842072H2.63214C1.78752 0.842072 1.13816 1.12729 0.683266 1.69712C0.227994 2.26723 0.000732422 2.98021 0.000732422 3.83526C0.000732422 4.52593 0.302321 5.27428 0.905229 6.08053C1.50814 6.88646 2.14968 7.5195 2.82954 7.97996C3.20224 8.24329 4.32619 9.02466 6.20138 10.3238C7.21365 11.0253 8.09396 11.6367 8.85044 12.1643C9.49525 12.6136 10.0513 13.0027 10.5105 13.3256C10.5632 13.3625 10.6461 13.4218 10.7561 13.5005C10.8746 13.5856 11.0246 13.6937 11.2096 13.8273C11.566 14.085 11.862 14.2933 12.0978 14.4524C12.3332 14.6116 12.6185 14.7895 12.9531 14.9869C13.2875 15.1841 13.6029 15.3324 13.8989 15.431C14.195 15.5296 14.4691 15.579 14.7212 15.579H14.7376H14.754C15.0061 15.579 15.2802 15.5296 15.5763 15.431C15.8723 15.3324 16.1874 15.1844 16.5221 14.9869C16.8564 14.7895 17.1413 14.6113 17.3775 14.4524C17.6133 14.2933 17.9093 14.085 18.2657 13.8273C18.4504 13.6937 18.6004 13.5856 18.7189 13.5007C18.829 13.4218 18.9118 13.3628 18.9648 13.3256C19.3225 13.0767 19.8799 12.6892 20.6292 12.1689C21.9928 11.2214 24.001 9.827 26.6622 7.97996C27.4625 7.42093 28.1312 6.74632 28.6686 5.95708C29.2051 5.16785 29.474 4.33998 29.474 3.47374C29.474 2.75001 29.2133 2.13072 28.6929 1.61493C28.1719 1.09978 27.555 0.842072 26.8422 0.842072Z" fill="black"/>
</svg>
