<svg width="20" height="26" viewBox="0 0 20 26" fill="none" xmlns="http://www.w3.org/2000/svg">
<path d="M9.57731 12.3164C12.3773 12.3164 14.6473 9.55931 14.6473 6.15824C14.6473 2.75709 13.902 0 9.57731 0C5.25257 0 4.50714 2.75709 4.50714 6.15824C4.50714 9.55931 6.77718 12.3164 9.57731 12.3164Z" fill="#0F7BDD"/>
<path d="M0.000996987 21.7192C0.000133571 21.5119 -0.000729845 21.6608 0.000996987 21.7192V21.7192Z" fill="#0F7BDD"/>
<path d="M19.1531 21.8812C19.1559 21.8244 19.1541 21.4873 19.1531 21.8812V21.8812Z" fill="#0F7BDD"/>
<path d="M19.1423 21.4706C19.0485 15.5458 18.2747 13.8576 12.3534 12.7889C12.3534 12.7889 11.5199 13.851 9.57721 13.851C7.63448 13.851 6.80083 12.7889 6.80083 12.7889C0.944218 13.8459 0.123379 15.5091 0.01545 21.2781C0.00659979 21.7492 0.00249849 21.7739 0.000915527 21.7192C0.00127529 21.8217 0.00170685 22.0112 0.00170685 22.3417C0.00170685 22.3417 1.41141 25.1835 9.57721 25.1835C17.7429 25.1835 19.1527 22.3417 19.1527 22.3417C19.1527 22.1294 19.1529 21.9817 19.1531 21.8813C19.1515 21.9151 19.1483 21.8495 19.1423 21.4706Z" fill="#0F7BDD"/>
</svg>
