<svg width="21" height="25" viewBox="0 0 21 25" fill="none" xmlns="http://www.w3.org/2000/svg">
<path d="M20.7586 21.0865L18.9701 18.1052C18.1441 16.7292 17.7076 15.1531 17.7076 13.549V10.9375C17.7076 7.64062 15.5076 4.8521 12.4993 3.95312V2.08335C12.4993 0.934375 11.5649 0 10.4159 0C9.26693 0 8.33256 0.934375 8.33256 2.08335V3.95312C5.32426 4.8521 3.12426 7.64062 3.12426 10.9375V13.549C3.12426 15.1531 2.68778 16.7281 1.86278 18.1042L0.0742593 21.0854C-0.0226157 21.2469 -0.0247152 21.4469 0.0680093 21.6104C0.160734 21.774 0.332609 21.875 0.520109 21.875H20.3118C20.4993 21.875 20.6721 21.774 20.7649 21.6115C20.8576 21.449 20.8545 21.2469 20.7586 21.0865Z" fill="#020202"/>
<path d="M7.13586 22.9167C7.72336 24.1438 8.96711 25.0001 10.416 25.0001C11.865 25.0001 13.1088 24.1438 13.6963 22.9167H7.13586Z" fill="#020202"/>
</svg>
