<svg width="26" height="26" viewBox="0 0 26 26" fill="none" xmlns="http://www.w3.org/2000/svg">
<path d="M25.5988 22.34L19.3738 15.9091C18.9274 15.4477 18.3695 15.263 18.1278 15.4989C17.8852 15.7331 17.3269 15.5488 16.8805 15.0874L16.7915 14.9951C19.5776 11.3308 19.3072 6.08429 15.9615 2.73861C12.3101 -0.91287 6.38963 -0.91287 2.73861 2.73861C-0.912869 6.39009 -0.912869 12.3097 2.73861 15.9612C6.14127 19.3643 11.5117 19.5922 15.1836 16.653L15.2227 16.6938C15.6682 17.1551 15.8342 17.7189 15.5909 17.9534C15.3487 18.1881 15.5135 18.7522 15.9603 19.2127L22.1819 25.6462C22.6283 26.1063 23.3638 26.12 23.8257 25.6733L25.5718 23.9838C26.0318 23.5381 26.0443 22.803 25.5988 22.34ZM13.9068 13.9063C11.394 16.4195 7.30496 16.4195 4.79255 13.9071C2.27975 11.3943 2.28014 7.30481 4.79255 4.79247C7.30496 2.27968 11.394 2.28006 13.906 4.79286C16.4192 7.30527 16.4192 11.394 13.9068 13.9063Z" fill="black"/>
</svg>
