<svg width="15" height="15" viewBox="0 0 15 15" fill="none" xmlns="http://www.w3.org/2000/svg">
<path d="M8.03033 1.71967C7.73744 1.42678 7.26256 1.42678 6.96967 1.71967L1.71967 6.96967C1.42678 7.26256 1.42678 7.73744 1.71967 8.03033C2.01256 8.32322 2.48744 8.32322 2.78033 8.03033L3 7.81066V12.75C3 13.1642 3.33579 13.5 3.75 13.5H5.25C5.66421 13.5 6 13.1642 6 12.75V11.25C6 10.8358 6.33579 10.5 6.75 10.5H8.25C8.66421 10.5 9 10.8358 9 11.25V12.75C9 13.1642 9.33579 13.5 9.75 13.5H11.25C11.6642 13.5 12 13.1642 12 12.75V7.81066L12.2197 8.03033C12.5126 8.32322 12.9874 8.32322 13.2803 8.03033C13.5732 7.73744 13.5732 7.26256 13.2803 6.96967L8.03033 1.71967Z" fill="#717171"/>
</svg>
