<svg width="15" height="15" viewBox="0 0 15 15" fill="none" xmlns="http://www.w3.org/2000/svg">
<path d="M11.0355 10.4105C10.5647 10.8814 9.68051 11.7656 8.91421 12.5319C8.13316 13.3129 6.86703 13.3131 6.08598 12.5321C5.33421 11.7803 4.46437 10.9104 3.96447 10.4105C2.01184 8.45791 2.01184 5.29209 3.96447 3.33947C5.91709 1.38684 9.08291 1.38684 11.0355 3.33947C12.9882 5.29209 12.9882 8.45791 11.0355 10.4105Z" stroke="#717171" stroke-width="2" stroke-linecap="round" stroke-linejoin="round"/>
<path d="M9.375 6.875C9.375 7.91053 8.53553 8.75 7.5 8.75C6.46447 8.75 5.625 7.91053 5.625 6.875C5.625 5.83947 6.46447 5 7.5 5C8.53553 5 9.375 5.83947 9.375 6.875Z" stroke="#717171" stroke-width="2" stroke-linecap="round" stroke-linejoin="round"/>
</svg>
