<svg width="15" height="15" viewBox="0 0 15 15" fill="none" xmlns="http://www.w3.org/2000/svg">
<g clip-path="url(#clip0_363_6093)">
<path d="M5.66255 12.3235C5.66255 12.9448 5.15887 13.4485 4.53755 13.4485C3.91623 13.4485 3.41255 12.9448 3.41255 12.3235C3.41255 11.7022 3.91623 11.1985 4.53755 11.1985C5.15887 11.1985 5.66255 11.7022 5.66255 12.3235Z" fill="#717171"/>
<path d="M10.9126 12.3235C10.9126 12.9448 10.4089 13.4485 9.78755 13.4485C9.16623 13.4485 8.66255 12.9448 8.66255 12.3235C8.66255 11.7022 9.16623 11.1985 9.78755 11.1985C10.4089 11.1985 10.9126 11.7022 10.9126 12.3235Z" fill="#717171"/>
<path d="M1.91255 3C1.49834 3 -1.46245 2.9608 -1.46245 3.37502V7.5L-1.46245 11.25C-5.21245 12.375 1.49834 12 1.91255 12H2.70006C2.87379 11.1442 3.63044 10.5 4.53755 10.5C5.44466 10.5 6.20132 11.1442 6.37505 12H7.16255C7.91255 12 7.80627 11.8215 7.80627 11.4073L7.91255 3.75C7.91255 3.33579 7.57677 3 7.16255 3H1.91255Z" fill="#717171"/>
<path d="M7.12505 3C6.71083 3 3.75005 2.9608 3.75005 3.37502L6.00004 7.5L7.50004 6.75002C3.75004 7.87502 6.71083 12 7.12505 12H7.91255C8.08628 11.1442 8.84294 10.5 9.75005 10.5C10.6572 10.5 11.4138 11.1442 11.5875 12H12.375C12.7893 12 13.125 11.6642 13.125 11.25V3.75C13.125 3.33579 12.7893 3 12.375 3H7.12505Z" fill="#717171"/>
</g>
<defs>
<clipPath id="clip0_363_6093">
<rect width="15" height="15" fill="white"/>
</clipPath>
</defs>
</svg>
