<svg width="15" height="15" viewBox="0 0 15 15" fill="none" xmlns="http://www.w3.org/2000/svg">
<path d="M8.125 10H9.125V10L8.125 10ZM8.125 5H7.125V5L8.125 5ZM10.8081 4.55806L11.5152 3.85095L11.5152 3.85095L10.8081 4.55806ZM12.9419 6.69194L13.6491 5.98484L13.649 5.98483L12.9419 6.69194ZM2.5 4.125H7.5V2.125H2.5V4.125ZM7.125 3.75V10H9.125V3.75H7.125ZM2.875 10V3.75H0.875V10H2.875ZM3.125 9.625H2.5V11.625H3.125V9.625ZM7.5 9.625H5.625V11.625H7.5V9.625ZM0.875 10C0.875 10.8975 1.60254 11.625 2.5 11.625V9.625C2.70711 9.625 2.875 9.79289 2.875 10H0.875ZM7.125 10C7.125 9.79289 7.2929 9.625 7.5 9.625V11.625C8.39746 11.625 9.125 10.8975 9.125 10H7.125ZM7.5 4.125C7.2929 4.125 7.125 3.95711 7.125 3.75H9.125C9.125 2.85254 8.39746 2.125 7.5 2.125V4.125ZM2.5 2.125C1.60254 2.125 0.875 2.85254 0.875 3.75H2.875C2.875 3.95711 2.70711 4.125 2.5 4.125V2.125ZM9.125 10L9.125 5L7.125 5L7.125 10L9.125 10ZM8.75 5.375H10.3661V3.375H8.75V5.375ZM12.125 7.13388V10H14.125V7.13388H12.125ZM10.101 5.26516L12.2348 7.39905L13.649 5.98483L11.5152 3.85095L10.101 5.26516ZM9.375 9.625H8.75V11.625H9.375V9.625ZM12.5 9.625H11.875V11.625H12.5V9.625ZM14.125 7.13388C14.125 6.7029 13.9538 6.28958 13.6491 5.98484L12.2348 7.39905C12.1645 7.32872 12.125 7.23334 12.125 7.13388H14.125ZM10.3661 5.375C10.2667 5.375 10.1713 5.33549 10.101 5.26517L11.5152 3.85095C11.2104 3.54621 10.7971 3.375 10.3661 3.375V5.375ZM7.125 10C7.125 10.8975 7.85254 11.625 8.75 11.625V9.625C8.95711 9.625 9.125 9.79289 9.125 10H7.125ZM12.125 10C12.125 9.79289 12.2929 9.625 12.5 9.625V11.625C13.3975 11.625 14.125 10.8975 14.125 10H12.125ZM9.125 5C9.125 5.20711 8.95711 5.375 8.75 5.375V3.375C7.85254 3.375 7.125 4.10254 7.125 5H9.125ZM4.625 10.625C4.625 10.7631 4.51307 10.875 4.375 10.875V12.875C5.61764 12.875 6.625 11.8676 6.625 10.625H4.625ZM4.375 10.875C4.23693 10.875 4.125 10.7631 4.125 10.625H2.125C2.125 11.8676 3.13236 12.875 4.375 12.875V10.875ZM4.125 10.625C4.125 10.4869 4.23693 10.375 4.375 10.375V8.375C3.13236 8.375 2.125 9.38236 2.125 10.625H4.125ZM4.375 10.375C4.51307 10.375 4.625 10.4869 4.625 10.625H6.625C6.625 9.38236 5.61764 8.375 4.375 8.375V10.375ZM10.875 10.625C10.875 10.7631 10.7631 10.875 10.625 10.875V12.875C11.8676 12.875 12.875 11.8676 12.875 10.625H10.875ZM10.625 10.875C10.4869 10.875 10.375 10.7631 10.375 10.625H8.375C8.375 11.8676 9.38236 12.875 10.625 12.875V10.875ZM10.375 10.625C10.375 10.4869 10.4869 10.375 10.625 10.375V8.375C9.38236 8.375 8.375 9.38236 8.375 10.625H10.375ZM10.625 10.375C10.7631 10.375 10.875 10.4869 10.875 10.625H12.875C12.875 9.38236 11.8676 8.375 10.625 8.375V10.375Z" fill="#717171"/>
</svg>
