<svg width="18" height="18" viewBox="0 0 18 18" fill="none" xmlns="http://www.w3.org/2000/svg">
<path d="M15.75 6.375C15.75 5.96079 15.4142 5.625 15 5.625C14.5858 5.625 14.25 5.96079 14.25 6.375H15.75ZM14.25 10.125C14.25 10.5392 14.5858 10.875 15 10.875C15.4142 10.875 15.75 10.5392 15.75 10.125H14.25ZM13.125 7.5C12.7108 7.5 12.375 7.83579 12.375 8.25C12.375 8.66421 12.7108 9 13.125 9V7.5ZM16.875 9C17.2892 9 17.625 8.66421 17.625 8.25C17.625 7.83579 17.2892 7.5 16.875 7.5V9ZM15 15.75V16.5C15.4142 16.5 15.75 16.1642 15.75 15.75H15ZM3 15.75H2.25C2.25 16.1642 2.58579 16.5 3 16.5V15.75ZM14.25 6.375V10.125H15.75V6.375H14.25ZM13.125 9H16.875V7.5H13.125V9ZM6 12H12V10.5H6V12ZM14.25 14.25V15.75H15.75V14.25H14.25ZM3.75 15.75V14.25H2.25V15.75H3.75ZM12 12C13.2426 12 14.25 13.0074 14.25 14.25H15.75C15.75 12.1789 14.0711 10.5 12 10.5V12ZM6 10.5C3.92893 10.5 2.25 12.1789 2.25 14.25H3.75C3.75 13.0074 4.75736 12 6 12V10.5ZM11.25 5.25C11.25 6.49264 10.2426 7.5 9 7.5V9C11.0711 9 12.75 7.32107 12.75 5.25H11.25ZM9 7.5C7.75736 7.5 6.75 6.49264 6.75 5.25H5.25C5.25 7.32107 6.92893 9 9 9V7.5ZM6.75 5.25C6.75 4.00736 7.75736 3 9 3V1.5C6.92893 1.5 5.25 3.17893 5.25 5.25H6.75ZM9 3C10.2426 3 11.25 4.00736 11.25 5.25H12.75C12.75 3.17893 11.0711 1.5 9 1.5V3ZM3 16.5H15V15H3V16.5Z" fill="white"/>
</svg>
